<svg width="27" height="24" viewBox="0 0 27 24" fill="none" xmlns="http://www.w3.org/2000/svg">
<path d="M12 0.844727H15C21.1609 0.844727 26.1553 5.83915 26.1553 12C26.1553 18.1609 21.1609 23.1553 15 23.1553H12C5.83915 23.1553 0.844727 18.1609 0.844727 12C0.844727 5.83915 5.83915 0.844727 12 0.844727Z" stroke="white" stroke-width="1.68958"/>
<path d="M10.5474 8.2041C11.0131 8.2041 11.3901 8.58117 11.3901 9.04688V14.9531C11.3901 15.4188 11.0131 15.7959 10.5474 15.7959C10.0817 15.7959 9.70459 15.4188 9.70459 14.9531V9.04688C9.70459 8.58117 10.0817 8.2041 10.5474 8.2041Z" fill="white" stroke="white" stroke-width="0.844792"/>
<path d="M16.4531 8.2041C16.9188 8.2041 17.2959 8.58117 17.2959 9.04688V14.9531C17.2959 15.4188 16.9188 15.7959 16.4531 15.7959C15.9874 15.7959 15.6104 15.4188 15.6104 14.9531V9.04688C15.6104 8.58117 15.9874 8.2041 16.4531 8.2041Z" fill="white" stroke="white" stroke-width="0.844792"/>
</svg>
